<svg width="184" height="31" viewBox="0 0 184 31" fill="none" xmlns="http://www.w3.org/2000/svg">
<path d="M4.99625 12.78H26.7563V19.78H4.99625V12.78ZM27.5163 0.499998V7.5H5.27625L9.23625 3.54V30.5H0.95625V0.499998H27.5163ZM35.2338 24.74V18.06H55.9138V24.74H35.2338ZM51.1938 0.499998L64.8338 30.5H55.9938L44.5538 4.02H46.9538L35.4738 30.5H26.6338L40.2738 0.499998H51.1938ZM87.995 15.82L88.675 14.26C90.995 14.3133 92.9017 14.6733 94.395 15.34C95.915 15.98 97.0483 16.8867 97.795 18.06C98.5417 19.2067 98.915 20.54 98.915 22.06C98.915 23.6867 98.5417 25.14 97.795 26.42C97.0483 27.6733 95.9283 28.6733 94.435 29.42C92.9683 30.14 91.1283 30.5 88.915 30.5H66.755L69.075 15.1L66.755 0.499998H88.115C90.8883 0.499998 93.0483 1.15333 94.595 2.46C96.1417 3.74 96.915 5.52666 96.915 7.82C96.915 9.07333 96.6217 10.2733 96.035 11.42C95.4483 12.5667 94.5017 13.54 93.195 14.34C91.915 15.1133 90.1817 15.6067 87.995 15.82ZM74.955 28.58L71.755 24.7H86.675C87.875 24.7 88.8083 24.4067 89.475 23.82C90.1417 23.2333 90.475 22.42 90.475 21.38C90.475 20.34 90.115 19.5133 89.395 18.9C88.675 18.26 87.6083 17.94 86.195 17.94H73.875V12.26H85.075C86.035 12.26 86.835 11.98 87.475 11.42C88.1417 10.8333 88.475 10.0467 88.475 9.06C88.475 8.26 88.195 7.60666 87.635 7.1C87.075 6.56667 86.275 6.3 85.235 6.3H71.795L74.955 2.42L76.995 15.1L74.955 28.58ZM108.708 13.62H119.628C120.961 13.62 122.001 13.3133 122.748 12.7C123.494 12.0867 123.868 11.2333 123.868 10.14C123.868 9.02 123.494 8.16667 122.748 7.58C122.001 6.96667 120.961 6.66 119.628 6.66H107.548L111.268 2.7V30.5H102.988V0.499998H120.788C123.081 0.499998 125.081 0.913331 126.788 1.74C128.494 2.54 129.828 3.66 130.788 5.1C131.748 6.51333 132.228 8.19333 132.228 10.14C132.228 12.0333 131.748 13.7 130.788 15.14C129.828 16.58 128.494 17.7 126.788 18.5C125.081 19.3 123.081 19.7 120.788 19.7H108.708V13.62ZM113.188 16.46H122.508L133.268 30.5H123.668L113.188 16.46ZM136.972 0.499998H145.252V30.5H136.972V0.499998ZM168.559 17.42V12.38L183.279 30.5H173.079L163.359 17.94H167.439L157.679 30.5H147.599L162.399 12.42V17.38L148.479 0.499998H158.839L167.639 11.86H163.559L172.239 0.499998H182.439L168.559 17.42Z" fill="#101011"/>
</svg>
